<?xml version="1.0" standalone="no"?>
<!DOCTYPE svg PUBLIC "-//W3C//DTD SVG 20010904//EN"
 "http://www.w3.org/TR/2001/REC-SVG-20010904/DTD/svg10.dtd">
<svg version="1.0" xmlns="http://www.w3.org/2000/svg"
 width="525.000000pt" height="525.000000pt" viewBox="0 0 525.000000 525.000000"
 preserveAspectRatio="xMidYMid meet">
<metadata>
Created by potrace 1.11, written by Peter Selinger 2001-2013
</metadata>
<g transform="translate(0.000000,525.000000) scale(0.100000,-0.100000)"
fill="#000000" stroke="none">
<path d="M1605 4023 c-28 -4 -155 -27 -201 -37 -51 -11 -186 -62 -259 -98
-218 -107 -423 -293 -551 -498 -76 -123 -147 -301 -180 -455 -26 -121 -27
-362 -3 -493 31 -163 72 -277 164 -452 62 -118 241 -315 370 -407 141 -101
300 -177 455 -218 17 -4 121 -26 155 -32 55 -10 317 -10 387 0 224 31 484 144
658 286 l45 37 595 3 c1111 5 1460 8 1464 12 2 2 61 95 130 207 93 151 121
202 108 203 -9 0 -457 1 -994 1 l-977 1 16 36 c101 230 139 481 108 721 -50
389 -263 740 -575 949 -249 166 -488 240 -775 238 -60 0 -123 -2 -140 -4z
m335 -129 c273 -98 326 -469 91 -637 -169 -122 -404 -81 -520 90 -66 97 -78
251 -27 356 83 172 280 254 456 191z m801 -650 c110 -35 199 -129 233 -244 71
-239 -123 -481 -371 -464 -200 14 -346 168 -345 364 2 250 244 422 483 344z
m-1699 -26 c123 -57 207 -175 216 -307 14 -206 -136 -376 -344 -389 -222 -14
-397 165 -382 392 11 151 102 265 257 321 60 22 187 13 253 -17z m759 -445
c64 -38 52 -127 -20 -154 -60 -24 -129 40 -111 102 12 39 19 49 44 59 33 13
55 12 87 -7z m-371 -528 c175 -89 250 -306 168 -483 -33 -71 -121 -154 -193
-182 -70 -27 -186 -32 -250 -10 -62 20 -144 79 -181 129 -41 55 -74 155 -74
221 0 63 33 166 69 213 31 41 90 91 135 114 87 45 235 44 326 -2z m1007 5
c113 -52 196 -163 209 -277 4 -35 -1 -73 -21 -142 -33 -117 -44 -139 -92 -180
-190 -164 -469 -109 -579 114 -26 54 -29 69 -28 155 0 81 4 104 27 153 29 65
105 144 164 172 103 50 221 52 320 5z"/>
</g>
</svg>
